<?xml version="1.0" encoding="utf-8"?>
<!-- Generator: Adobe Illustrator 22.0.1, SVG Export Plug-In . SVG Version: 6.00 Build 0)  -->
<svg version="1.1" id="Capa_1" xmlns="http://www.w3.org/2000/svg" xmlns:xlink="http://www.w3.org/1999/xlink" x="0px" y="0px"
	 viewBox="0 0 53 53" style="enable-background:new 0 0 53 53;" xml:space="preserve">
<style type="text/css">
	.st0{fill:#C6C7CE;}
</style>
<path class="st0" d="M51.7,51.3L36.8,35.8C40.6,32,43,26.8,43,21C43,9.4,33.6,0,22,0S1,9.4,1,21s9.4,21,21,21
	c5.1,0,9.7-1.8,13.4-4.8l14.9,15.5c0.2,0.2,0.5,0.3,0.7,0.3c0.3,0,0.5-0.1,0.7-0.3C52.1,52.3,52.1,51.7,51.7,51.3z M22,40
	C11.5,40,3,31.5,3,21S11.5,2,22,2s19,8.5,19,19S32.5,40,22,40z"/>
</svg>
